<svg xmlns="http://www.w3.org/2000/svg" version="1.1" viewBox="-5.0 -10.0 110.0 135.0">
 <path d="m83.434 33.281h-15.848c-0.70313 0-1.2852-0.55078-1.3281-1.2539l-0.62109-10.445c-0.12891-2.1484 0.64453-4.2266 2.1758-5.8516 1.6406-1.7383 3.9453-2.7383 6.332-2.7383h2.7266c2.3828 0 4.6914 0.99609 6.332 2.7383 1.5312 1.625 2.3047 3.7031 2.1797 5.8516l-0.61719 10.445c-0.042969 0.70312-0.625 1.25-1.3281 1.25zm-14.594-2.6602h13.34l0.54687-9.1953c0.082032-1.4102-0.43359-2.7852-1.4609-3.8711-1.1406-1.207-2.7383-1.8984-4.3945-1.8984h-2.7266c-1.6523 0-3.2539 0.69141-4.3945 1.9023-1.0234 1.0859-1.543 2.4609-1.457 3.8711l0.54688 9.1953z" fill-rule="evenodd"/>
 <path d="m80.609 16.68c-0.24219 0-0.48828-0.066407-0.71094-0.20703-0.62109-0.39453-0.80859-1.2148-0.41406-1.8359l2.9883-4.7383c0.88281-1.3984 0.98828-2.5938 0.63672-3.0078-0.30859-0.36328-1.3398-0.42578-2.9492 0.25391-0.41016 0.17188-0.875 0.12891-1.2422-0.11328-0.37109-0.24219-0.59766-0.64844-0.60547-1.0898-0.039062-2.2617-1.4375-3.2734-2.8047-3.2734-1.3672 0-2.7656 1.0117-2.8047 3.2734-0.007813 0.44141-0.23438 0.85156-0.60547 1.0898-0.37109 0.24219-0.83594 0.28125-1.2422 0.11328-1.6094-0.67969-2.6406-0.61328-2.9453-0.25391-0.35156 0.41406-0.24609 1.6094 0.63672 3.0078l2.9922 4.7383c0.39063 0.62109 0.20703 1.4414-0.41406 1.8359-0.62109 0.39062-1.4414 0.20703-1.8359-0.41406l-2.9883-4.7383c-1.4805-2.3477-1.6406-4.7031-0.41406-6.1484 0.58594-0.69141 1.8828-1.6211 4.3984-1.0195 0.72266-2.7266 3.0039-4.1445 5.2305-4.1445 2.2305 0 4.5078 1.418 5.2305 4.1445 2.5117-0.60156 3.8086 0.32422 4.3984 1.0195 1.2266 1.4453 1.0664 3.8047-0.41406 6.1484l-2.9922 4.7383c-0.25391 0.40234-0.6875 0.62109-1.1289 0.62109z" fill-rule="evenodd"/>
 <path d="m62.047 33.281h-19.336c-0.42188 0-0.82031-0.19922-1.0703-0.53906-1.0742-1.4531-1.6445-3.1172-1.6445-4.8125 0-5.3086 5.5547-9.6328 12.379-9.6328 6.8281 0 12.379 4.3203 12.379 9.6328 0 1.6914-0.56641 3.3555-1.6406 4.8125-0.25 0.33984-0.64844 0.53906-1.0703 0.53906zm-18.625-2.6602h17.914c0.50781-0.85156 0.76172-1.7539 0.76172-2.6914 0-3.8438-4.3594-6.9688-9.7188-6.9688s-9.7188 3.125-9.7188 6.9688c0 0.93359 0.25781 1.8398 0.76172 2.6914z" fill-rule="evenodd"/>
 <path d="m55.059 21.203c-0.078125 0-0.15625-0.007813-0.23828-0.023437-1.6797-0.30469-3.207-0.30469-4.8867 0-0.35938 0.0625-0.72656-0.019532-1.0195-0.23438-0.29297-0.21484-0.48828-0.53906-0.53516-0.90234l-1.1719-8.8594c-0.11328-0.85547 0.14844-1.6953 0.73828-2.3672 0.61719-0.70703 1.5391-1.1289 2.4609-1.1289h3.9453c0.92188 0 1.8438 0.42188 2.4609 1.1289 0.58594 0.67188 0.84766 1.5117 0.73828 2.3672l-1.1719 8.8594c-0.046875 0.36328-0.24219 0.6875-0.53516 0.90234-0.23047 0.16797-0.50391 0.25781-0.78516 0.25781zm-2.6797-2.9102c0.51172 0 1.0234 0.023437 1.5352 0.074219l0.99609-7.5312c0.011719-0.085938-0.023437-0.17578-0.10156-0.26172-0.11719-0.13281-0.30078-0.22266-0.46094-0.22266h-3.9453c-0.16016 0-0.34375 0.089844-0.46094 0.21875-0.078125 0.089844-0.10938 0.17578-0.097656 0.26563l0.99609 7.5312c0.51172-0.050782 1.0234-0.074219 1.5352-0.074219z" fill-rule="evenodd"/>
 <path d="m47.277 21.895c-0.42188 0-0.82812-0.19922-1.082-0.55469l-3.0625-4.2695c-0.42969-0.60156-0.58203-1.3477-0.42969-2.1055 0.16406-0.80859 0.67188-1.543 1.3633-1.9648l2.7148-1.6602c0.68359-0.41797 1.5469-0.52734 2.3125-0.29297 0.49609 0.15234 0.85938 0.58203 0.92969 1.0977l1 7.5508c0.085937 0.65625-0.32031 1.2734-0.95313 1.4531l-2.4258 0.69141c-0.11719 0.035156-0.24219 0.050781-0.36328 0.050781zm0.30078-7.9219-2.125 1.2969c-0.097656 0.058594-0.15625 0.21875-0.14453 0.27344l2.5039 3.4805 0.41797-0.12109-0.65234-4.9336z" fill-rule="evenodd"/>
 <path d="m57.484 21.895c-0.12109 0-0.24609-0.015625-0.36328-0.050781l-2.4219-0.69141c-0.63672-0.17969-1.0391-0.80078-0.95312-1.4531l1-7.5508c0.070312-0.51563 0.43359-0.94531 0.92969-1.0977 0.76562-0.23438 1.6289-0.125 2.3125 0.29297l2.7109 1.6602c0.6875 0.42188 1.1992 1.1562 1.3633 1.9648 0.15234 0.75781 0 1.5078-0.42969 2.1055l-3.0625 4.2695c-0.25391 0.35156-0.66016 0.55469-1.082 0.55469zm-0.95312-2.9883 0.41797 0.11719 2.5156-3.5078c-0.003906-0.027344-0.0625-0.1875-0.16016-0.24609l-2.125-1.2969-0.65234 4.9336z" fill-rule="evenodd"/>
 <path d="m90.492 59.344h-71.023c-0.73438 0-1.332-0.59766-1.332-1.332v-26.062c0-0.73438 0.59766-1.332 1.332-1.332h71.023c0.73437 0 1.332 0.59766 1.332 1.332v26.066c0 0.73438-0.59766 1.332-1.332 1.332zm-69.695-2.6602h68.363v-23.402h-68.363z" fill-rule="evenodd"/>
 <path d="m63.207 87.91c-1.6523 0-3.4219-0.28125-5.0195-0.76562-5.1016-1.5547-19.094-5.9648-19.234-6.0078-0.69922-0.22266-1.0898-0.96875-0.86719-1.668 0.22266-0.70312 0.96875-1.0859 1.668-0.87109 0.14062 0.046875 14.121 4.4492 19.211 6.0039 3.4492 1.0508 7.1562 0.69531 7.7734-0.33203 0.25391-0.42188-0.09375-1.5469-1.8984-3.332-2.1797-2.1562-6.6953-4.9336-13.059-8.0312l-1.5547-0.75781c-7.8047-3.8242-12.52-6.125-21.629-4.6914-2.6133 0.41406-5.2812 1.1055-7.9258 2.0625-0.69141 0.25-1.4531-0.10938-1.7031-0.80078s0.10938-1.4531 0.80078-1.7031c2.8047-1.0117 5.6367-1.75 8.4141-2.1875 9.9453-1.5703 15.223 1.0156 23.215 4.9297l1.5508 0.75781c6.7188 3.2695 11.348 6.1406 13.766 8.5312 2.6055 2.5781 3.3828 4.793 2.3125 6.5898-0.96094 1.6094-3.25 2.2812-5.8164 2.2812z" fill-rule="evenodd"/>
 <path d="m74.656 81.367c-0.46094 0-0.91016-0.24219-1.1562-0.67188-0.36328-0.64062-0.14453-1.4531 0.49609-1.8164 1.543-0.88281 2.1016-2.1328 1.4961-3.3516-0.50781-1.0195-1.8008-1.7812-3.1875-1.1797l-9.4961 4.0977c-0.67578 0.29297-1.457-0.019531-1.75-0.69531-0.29297-0.67578 0.019531-1.457 0.69531-1.75l9.4922-4.0977c2.8906-1.2461 5.5703 0.32422 6.625 2.4336 1.043 2.0859 0.65625 5.0117-2.5547 6.8477-0.20703 0.12109-0.43359 0.17578-0.66016 0.17578z" fill-rule="evenodd"/>
 <path d="m54.062 99.992c-5.5312 0-11.559-1.6484-19.883-3.9258-4.1133-1.125-8.7734-2.3984-14.277-3.7344-0.71484-0.17188-1.1523-0.89453-0.98047-1.6055 0.17188-0.71484 0.89062-1.1523 1.6055-0.98047 5.543 1.3438 10.223 2.625 14.352 3.7539 11.895 3.2539 18.449 5.0469 25.539 2.9102 6.0469-1.8203 18.621-8.125 28.402-15.129 2-1.4336 2.6133-3.1328 1.6797-4.6602-0.72656-1.1875-2.3984-2.0117-3.8359-1.2734l-17.977 9.2539c-0.65234 0.33203-1.457 0.078126-1.793-0.57422-0.33594-0.65234-0.078125-1.457 0.57422-1.793l17.977-9.2539c2.8281-1.4531 5.9453 0 7.3242 2.2539 1.2734 2.082 1.4062 5.4844-2.3984 8.2109-10.133 7.2617-22.797 13.59-29.184 15.516-2.3789 0.71875-4.707 1.0352-7.125 1.0352z" fill-rule="evenodd"/>
 <path d="m18.395 96.02h-8.8203c-1.7383 0-3.1523-1.4141-3.1523-3.1523v-26.156c0-1.7383 1.4141-3.1523 3.1523-3.1523h8.8203c1.7383 0 3.1523 1.4141 3.1523 3.1523v26.156c0 1.7383-1.4141 3.1523-3.1523 3.1523zm-8.8203-29.801c-0.26562 0-0.49219 0.22266-0.49219 0.49219v26.156c0 0.26562 0.22656 0.49219 0.49219 0.49219h8.8203c0.26562 0 0.49219-0.22266 0.49219-0.49219v-26.156c0-0.26563-0.22656-0.49219-0.49219-0.49219z" fill-rule="evenodd"/>
 <path d="m13.984 75.551c-0.73438 0-1.332-0.59766-1.332-1.332v-3.9844c0-0.73438 0.59766-1.332 1.332-1.332s1.332 0.59766 1.332 1.332v3.9844c0 0.73438-0.59766 1.332-1.332 1.332z" fill-rule="evenodd"/>
 <path d="m90.492 51.207h-71.023c-0.73438 0-1.332-0.59766-1.332-1.332v-9.7891c0-0.73438 0.59766-1.332 1.332-1.332h71.023c0.73437 0 1.332 0.59766 1.332 1.332v9.7891c0 0.73438-0.59766 1.332-1.332 1.332zm-69.695-2.6602h68.363v-7.125h-68.363z" fill-rule="evenodd"/>
 <path d="m27.004 15.082c-2.1523 0-5.2578-1.25-7.8398-7.207-0.17578-0.40234-0.14062-0.86328 0.09375-1.2344 0.23047-0.37109 0.63281-0.60547 1.0703-0.625 0.39453-0.019531 0.77344-0.027344 1.1367-0.027344 3.8398 0 6.5664 0.94922 8.1016 2.8242 1.3242 1.6172 1.375 3.5469 1.1992 4.4336-0.0625 0.31641-0.23828 0.59766-0.49609 0.79297-0.14062 0.10547-1.4062 1.0391-3.2656 1.0391zm-4.4805-6.3984c1.3672 2.4258 2.9219 3.7383 4.4766 3.7383 0.46875 0 0.875-0.11719 1.168-0.23828-0.03125-0.44922-0.17969-1.1055-0.6875-1.7109-0.875-1.0391-2.5781-1.6523-4.957-1.7891z" fill-rule="evenodd"/>
 <path d="m34.414 33.281h-13.352c-0.28516 0-0.5625-0.09375-0.79297-0.26172-3.1719-2.3477-3.9766-5.7656-4.1289-6.5781-0.30469-0.82031-1.3906-4.3828 0.84375-8.3438 1.6914-3 4.1641-3.4453 5.4922-3.4453 0.27734 0 0.53516 0.019531 0.76172 0.046875 1.0664 0.12891 1.9023 0.62891 2.6406 1.0664 0.66797 0.39844 1.25 0.74609 1.8867 0.75781 0.58203-0.015626 1.1172-0.32813 1.793-0.73047 0.8125-0.48047 1.8203-1.082 3.1875-1.1367 0.082031-0.003906 0.16797-0.003906 0.25391-0.003906 1.3242 0 3.8008 0.44922 5.4922 3.4453 2.2305 3.9609 1.1445 7.5234 0.84375 8.3438-0.15234 0.8125-0.95703 4.2305-4.1289 6.5781-0.23047 0.16797-0.50781 0.25781-0.79297 0.25781zm-12.895-2.6641h12.434c2.3633-1.957 2.7695-4.6875 2.7734-4.7188 0.015626-0.11719 0.050782-0.23438 0.097657-0.34375 0.046875-0.10938 1.1719-2.918-0.65234-6.1562-0.78125-1.3867-1.8477-2.0898-3.1719-2.0898l-0.14844 0.003906c-0.69531 0.027344-1.2422 0.35156-1.9375 0.76562-0.84766 0.50391-1.8086 1.0742-3.1484 1.1016-1.3984-0.03125-2.4258-0.64063-3.25-1.1328-0.58594-0.34766-1.0898-0.64844-1.5977-0.71094-0.13281-0.015626-0.28125-0.027344-0.44531-0.027344-1.3242 0-2.3906 0.70312-3.1719 2.0898-1.8516 3.2852-0.66016 6.125-0.64844 6.1562 0.046875 0.10937 0.082031 0.22656 0.097656 0.34375 0.003906 0.023437 0.44141 2.7812 2.7734 4.7188z" fill-rule="evenodd"/>
 <path d="m27.738 19.18c-0.10156 0-0.20312-0.011719-0.30469-0.035157-0.71484-0.16797-1.1562-0.88672-0.99219-1.6016 0.058594-0.24609 1.4688-6.1172 4.4414-9.0898 0.51953-0.51953 1.3633-0.51953 1.8828 0s0.51953 1.3633 0 1.8828c-2.0273 2.0273-3.3828 6.332-3.7344 7.8203-0.14453 0.61328-0.69141 1.0234-1.293 1.0234z" fill-rule="evenodd"/>
<text x="0.0" y="117.5" font-size="5.0" font-weight="bold" font-family="Arbeit Regular, Helvetica, Arial-Unicode, Arial, Sans-serif" fill="#000000">Created by Muhammad Shabraiz</text><text x="0.0" y="122.5" font-size="5.0" font-weight="bold" font-family="Arbeit Regular, Helvetica, Arial-Unicode, Arial, Sans-serif" fill="#000000">from Noun Project</text></svg>